<svg width="48" height="46" viewBox="0 0 48 46" fill="none" xmlns="http://www.w3.org/2000/svg">
  <path fill-rule="evenodd" clip-rule="evenodd"
    d="M23.7047 0C25.6429 1.31303 27.21 2.451 29.8905 4.26736C24.3233 8.42508 18.756 12.5835 13.1888 16.7412C17.1271 19.6517 21.0035 22.1027 24.9419 24.6194C30.5586 20.4892 36.2291 16.4412 41.9529 12.4738C43.8705 13.8306 45.8499 15.3187 47.8294 16.7412C40.0755 22.2756 32.2399 27.6374 24.3233 32.8258C16.4879 27.5737 8.73499 22.1465 0.817139 16.7412C8.55684 11.2507 16.1858 5.67034 23.7047 0Z"
    fill="#7C3AED"
  />
  <path fill-rule="evenodd" clip-rule="evenodd"
    d="M6.36363 24.9913C12.414 28.9725 18.3932 33.1302 24.3025 37.4652C30.1259 33.226 36.0024 29.0676 41.9321 24.9913C43.9322 26.3919 45.3343 27.4423 47.8087 29.2587C40.0578 34.9678 32.2222 40.5482 24.3025 45.9999C16.3828 40.5482 8.54722 34.9678 0.796387 29.2587C2.6937 27.8222 4.54945 26.3996 6.36363 24.9913Z"
    fill="#7C3AED"
  />
</svg>

